2.5Hzlow3min_grf.mot
version=1
nRows=10
nColumns 19
inDegrees=yes
endheader
time	1_ground_force_vx	1_ground_force_vy	1_ground_force_vz	1_ground_force_px	1_ground_force_py	1_ground_force_pz	1_ground_torque_x	1_ground_torque_y	1_ground_torque_z	2_ground_force_vx	2_ground_force_vy	2_ground_force_vz	2_ground_force_px	2_ground_force_py	2_ground_force_pz	2_ground_torque_x	2_ground_torque_y	2_ground_torque_z
            2.502500	            0.263386	           12.815038	           -3.705987	           -0.241211	            0.006184	           -0.396621	            0.000074	            0.003623	           -0.001048	            0.044376	            0.735256	            0.424961	           -0.232311	            0.006130	           -0.833667	           -0.243988	           -0.057732	            0.037602
            2.503000	            0.491804	           12.816458	           -4.027547	           -0.235884	            0.006145	           -0.387234	            0.002600	            0.067750	           -0.021290	            0.328073	            0.000180	            0.281429	           -0.232311	            0.006130	           -0.833667	           -0.262934	           -0.028972	           -0.094240
            2.503500	            0.629401	           11.194487	           -4.126557	           -0.232664	            0.006207	           -0.401467	            0.005637	            0.100257	           -0.036957	            0.186920	            0.183319	            0.422930	           -0.232311	            0.006130	           -0.833667	           -0.168812	           -0.076098	           -0.037898
            2.504000	            0.538368	           10.112089	           -3.947544	           -0.225749	            0.006224	           -0.405328	            0.004748	            0.089181	           -0.034814	           -0.422108	            0.180952	            0.470117	           -0.232311	            0.006130	           -0.833667	           -0.131592	            0.027816	            0.019007
            2.504500	            0.263880	           10.111052	           -3.717582	           -0.237468	            0.006203	           -0.400793	            0.002897	            0.110994	           -0.040810	           -0.280270	           -0.186502	            0.374887	           -0.232311	            0.006130	           -0.833667	           -0.168914	           -0.047739	           -0.037797
            2.505000	           -0.102781	            9.029584	           -3.767165	           -0.233013	            0.005581	           -0.255695	            1.338835	            0.056027	           -0.120102	           -0.282305	            0.366277	            0.283002	           -0.232311	            0.006130	           -0.833667	           -0.187758	           -0.038153	           -0.094306
            2.505500	           -0.056743	            9.209466	           -3.674794	           -0.233013	            0.005581	           -0.255695	            1.372362	            0.028327	           -0.118356	           -0.094967	            0.367456	            0.142138	           -0.232311	            0.006130	           -0.833667	           -0.225177	           -0.067050	            0.018710
            2.506000	           -0.057312	            9.210449	           -3.904074	           -0.233013	            0.005581	           -0.255695	            1.213425	            0.018642	           -0.024012	            0.091953	            0.550775	            0.565069	           -0.232311	            0.006130	           -0.833667	           -0.244065	           -0.038760	            0.018819
            2.506500	            0.080169	            8.850140	           -3.951817	           -0.233013	            0.005581	           -0.255695	            1.196853	            0.027944	           -0.018054	            0.138015	            0.736097	            0.284137	           -0.232311	            0.006130	           -0.833667	           -0.168649	           -0.123294	           -0.056917
            2.507000	            0.217781	            7.768770	           -4.002652	           -0.233013	            0.005581	           -0.255695	            1.124665	            0.018345	            0.081977	           -0.043403	           -0.921915	            0.278303	           -0.232311	            0.006130	           -0.833667	           -0.112670	           -0.009927	            0.018864
